<?xml version="1.0" encoding="iso-8859-1"?>
<!-- Generator: Adobe Illustrator 18.0.0, SVG Export Plug-In . SVG Version: 6.00 Build 0)  -->
<!DOCTYPE svg PUBLIC "-//W3C//DTD SVG 1.1//EN" "http://www.w3.org/Graphics/SVG/1.1/DTD/svg11.dtd">
<svg version="1.1" id="Capa_1" xmlns="http://www.w3.org/2000/svg" xmlns:xlink="http://www.w3.org/1999/xlink" x="0px" y="0px"
	 viewBox="0 0 487 487" style="enable-background:new 0 0 487 487;" xml:space="preserve">
<g id="XMLID_175_">
	<path id="XMLID_180_" d="M401.855,135.895h35.52v15.67c-11.416,0-40.641,0-50.57,0V84.704h-84.082l0.293,50.147h33.905v16.715
		h-49.625V84.704h-85.143v51.191h35.52v15.67h-53.02V84.704H100.57l0.294,50.147h33.904v16.715H85.145V84.704H0v51.191h35.521
		v32.386h16.715v-49.101H16.716v-17.76H68.43v66.861h83.055v-50.146h-34.003l-0.097-16.715h50.554v66.861h86.45v-49.101h-35.52
		v-17.76h51.712v66.861h83.056v-50.146h-34.003l-0.099-16.715h50.554v66.861c16.675,0,68.494,0,84.002,0v-49.101h-35.52v-17.76
		h51.714v66.861H487V84.704h-85.145V135.895z"/>
	<rect id="XMLID_179_" y="35.602" width="487" height="16.716"/>
	<path id="XMLID_178_" d="M401.855,369.91h35.52v15.671c-11.416,0-40.641,0-50.57,0v-66.862h-84.082l0.293,50.146h33.905v16.715
		h-49.625v-66.862h-85.143v51.191h35.52v15.671h-53.02v-66.862H100.57l0.294,50.146h33.904v16.715H85.145v-66.862H0v51.191h35.521
		v32.386h16.715v-49.102H16.716v-17.76H68.43v66.862h83.055V352.15h-34.003l-0.097-16.716h50.554v66.862h86.45v-49.102h-35.52
		v-17.76h51.712v66.862h83.056V352.15h-34.003l-0.099-16.716h50.554v66.862c10.363,0,73.817,0,84.002,0v-49.102h-35.52v-17.76
		h51.714v66.862H487v-83.577h-85.145V369.91z"/>
	<rect id="XMLID_177_" y="200.667" width="487" height="85.666"/>
	<rect id="XMLID_176_" y="434.683" width="487" height="16.715"/>
</g>
<g>
</g>
<g>
</g>
<g>
</g>
<g>
</g>
<g>
</g>
<g>
</g>
<g>
</g>
<g>
</g>
<g>
</g>
<g>
</g>
<g>
</g>
<g>
</g>
<g>
</g>
<g>
</g>
<g>
</g>
</svg>
