<svg xmlns="http://www.w3.org/2000/svg" viewBox="0 0 195 71"><g fill="none" fill-rule="evenodd"><path fill="#FFF" d="M57.98 19.83v-9.25H56.7v8.52l-6.9 4.05-6.9-4.05v-8.52h-1.28v9.25l8.18 4.8z"/><g transform="translate(0 .42)"><path fill="#FFF" d="M49.11 20.77v-8.55c-1.52-2.82-4.93-2.87-4.93-2.87-.05-.06 0 8.55 0 8.55s3.4.05 4.93 2.87m6.25-2.8s.05-8.6 0-8.55c0 0-3.43.06-4.98 2.87v8.55c1.55-2.81 4.98-2.87 4.98-2.87m-15.92 38c-.15.5-.44.8-.79.8-.35 0-.65-.28-.8-.94a5.76 5.76 0 01-.12-1.31c0-.6.05-1.08.19-1.44.16-.44.41-.7.74-.7.37 0 .65.25.81.9.09.37.13.74.13 1.29 0 .56-.05 1.04-.16 1.4m-.79-4.3c-1.12 0-1.96 1.2-1.96 2.86 0 1.2.47 2.92 1.95 2.92 1.18 0 1.99-1.16 1.99-2.9 0-1.22-.47-2.87-1.98-2.87M21.04 14.9h-2.66c-.04-.9-.14-1.76-.31-2.55h2.27c.38.78.62 1.64.7 2.55zm-.7 3.83h-2.27c.17-.8.27-1.65.3-2.55h2.67c-.08.9-.32 1.76-.7 2.55zm-3.74 3.66A9.1 9.1 0 0017.73 20h1.85a7.52 7.52 0 01-2.98 2.38zm-2.39.48v-2.86h2.18c-.55 1.5-1.35 2.51-2.18 2.86zm0-6.7h2.9a13.8 13.8 0 01-.34 2.56h-2.56v-2.55zm0-3.82h2.56c.18.77.3 1.62.33 2.55h-2.89v-2.55zm0-4.14c.83.35 1.63 1.36 2.18 2.86h-2.18V8.21zm5.37 2.86h-1.85A9.08 9.08 0 0016.6 8.7a7.52 7.52 0 012.98 2.38zm-6.64 0h-2.18c.55-1.5 1.35-2.51 2.18-2.86v2.86zm0 3.83h-2.89c.04-.93.15-1.78.33-2.55h2.56v2.55zm0 3.83h-2.56a13.8 13.8 0 01-.33-2.55h2.89v2.55zm0 4.14c-.83-.35-1.63-1.37-2.18-2.86h2.18v2.86zm-5.36-2.86h1.84c.3.91.68 1.72 1.13 2.38A7.52 7.52 0 017.58 20zm-.77-1.28a7.42 7.42 0 01-.7-2.55h2.67c.03.9.14 1.75.3 2.55H6.81zm0-6.38h2.27c-.16.8-.27 1.65-.3 2.55H6.12c.08-.9.32-1.77.69-2.55zm3.74-3.66a9.12 9.12 0 00-1.13 2.38H7.58a7.52 7.52 0 012.97-2.38zm3.03-1.92a8.78 8.78 0 000 17.53 8.78 8.78 0 000-17.53zm21.15 49.2c-.15.5-.43.8-.79.8-.35 0-.65-.28-.8-.94a5.8 5.8 0 01-.12-1.31c0-.6.06-1.08.2-1.44.15-.44.4-.7.73-.7.37 0 .66.25.82.9.08.37.12.74.12 1.29 0 .56-.05 1.04-.16 1.4m-.79-4.3c-1.12 0-1.96 1.2-1.96 2.86 0 1.2.47 2.92 1.95 2.92 1.18 0 1.99-1.16 1.99-2.9 0-1.22-.47-2.87-1.98-2.87"/><mask id="b" fill="#fff"><path id="a" d="M0 .16h63.7v70.43H0z"/></mask><path fill="#FFF" d="M61.8 31.83s0 2.05-.84 5.3l-1.5-.07c-2.45-.12-4.47.4-6.77.04-2.3-.35-4.28-2.45-7.51-3.04-2.34-.42-4.27-.5-6.86-.42v-6.9H25.38v6.69c-.4-.02-.8-.03-1.22-.03-3.66 0-5.06-1-8.88-1-3.81 0-9.57 1.86-12.77 2.95l-.15.05a20.72 20.72 0 01-.45-3.57V2.03h29.2v.85c-.65.28-1.1.9-1.1 1.63 0 .73.45 1.34 1.1 1.62v1.03c-.98.36-2.74 1.22-3.54 2.94a9.34 9.34 0 00-.9 3.8h-.69v1.49h11.74V13.9h-.69c0-.77-.14-2.17-.9-3.8-.8-1.73-2.56-2.58-3.53-2.94V6.13c.65-.28 1.1-.9 1.1-1.62 0-.73-.45-1.35-1.1-1.63v-.85h29.2v29.8zm-7.6 19.15l-13.74-8.7v-2l14.74 9.31-1 1.39zM31.87 68.49c-9.96-4.77-16.6-10.43-21.04-15.86l12.45-7.8h17.2v-.03l12.45 7.8c-4.43 5.45-11.09 11.12-21.07 15.9zm-6.7-25.37h13.38V38H25.17v5.13zm5.31-10.3h2.76v-4.77h-2.76v4.78zm-7.5 3.36h17.76v-1.27H22.98v1.27zM8.5 49.51l14.75-9.3v2L9.47 50.9c-.34-.47-.67-.93-.98-1.39zM31.85 3.74c.45 0 .81.34.81.77 0 .42-.36.77-.8.77a.79.79 0 01-.82-.77c0-.43.37-.77.81-.77zM0 .16v32.2c0 .06.08 5.84 4.07 13.42 3.66 6.95 11.45 16.88 27.8 24.81 16.37-7.93 24.15-17.86 27.8-24.81 3.97-7.58 4.04-13.36 4.04-13.42V.16H0z" mask="url(#b)"/><path fill="#FFF" d="M29.28 56.8c-.66 0-1.08-.38-1.08-.97 0-.49.3-.82.7-1.04.55.23.88.4 1.09.56.19.15.28.35.28.6 0 .5-.4.85-1 .85m-.07-4.45c.56 0 .9.27.9.72 0 .46-.45.75-.82.94-.4-.16-.97-.44-.97-.93 0-.44.35-.73.9-.73m.75 2.01c.58-.22 1.12-.6 1.12-1.3 0-.82-.74-1.38-1.8-1.38-.91 0-1.9.42-1.9 1.49 0 .56.38 1.07.9 1.28-.63.22-1.08.77-1.08 1.45 0 1.1 1.02 1.59 1.98 1.59.97 0 2.1-.6 2.1-1.7 0-.69-.5-1.1-1.32-1.43"/><mask id="d" fill="#fff"><path id="c" d="M0 70.6h194.63V.15H0z"/></mask><path fill="#FFF" d="M26.44 41.85h10.82v-2.58H26.44zm8.28-19.49h.85V18.1h-.85v4.27zm-4.25 0h2.76v-4.28h-2.76v4.28zm-2.33 0h.85V18.1h-.85v4.27zm8.87-5.7H26.7v7.32h-2.24v1.49h14.8v-1.49h-2.24v-7.32zM25.6 51.77h-.65l-1.7 1.19.23.5.64-.29c.23-.1.49-.27.57-.32v3.73h-.97v.75h2.66v-.75h-.78v-4.81zm53.03-12.11l1.9-.37.24-2.38v-8.44l-.23-2.37-1.9-.38v-.7h5.07l1.2 3.45 3.55 9.24 3.65-9.26L93.2 25h5.08v.7l-1.88.39-.26 2.37v8.44l.26 2.38 1.88.37v.73H91.8v-.73l1.88-.37.26-2.38V26.6L89.9 36.9l-1.2 3.48h-1.53L85.9 36.9l-4.07-10.3v10.3l.26 2.38 1.88.37v.73h-5.34zm22.69-14.43c0-.8.66-1.49 1.48-1.49.8 0 1.48.66 1.48 1.5 0 .76-.61 1.47-1.48 1.47-.8 0-1.48-.6-1.48-1.48zm-1.22 14.43l1.64-.3.24-1.8v-4.83l-.24-1.81-1.88-.31v-.73l4.37-.42-.23 3.27v4.84l.23 1.79 1.65.3v.73h-5.78v-.73zm14.16-1.86v-6.96a4.42 4.42 0 00-1.9-.42c-2.21 0-3.44 1.84-3.44 4.73 0 2.56.94 4.11 2.78 4.11.82 0 1.7-.37 2.56-1.45m-7.45-2.17c0-3.67 2.3-6.25 5.64-6.25.66 0 1.18.07 1.81.2v-2.74l-.26-1.81-1.88-.3V24l4.4-.42-.26 3.27v10.72l.26 1.79 1.53.3v.73l-3.79.5.35-2.24c-1.08 1.46-2.18 2.24-3.73 2.24-2.38 0-4.07-2.05-4.07-5.25m19.54 2.16v-6.96a4.42 4.42 0 00-1.9-.42c-2.22 0-3.44 1.84-3.44 4.73 0 2.56.94 4.11 2.78 4.11.82 0 1.69-.37 2.56-1.45m-7.46-2.17c0-3.67 2.31-6.25 5.65-6.25.66 0 1.17.07 1.81.2v-2.74l-.26-1.81-1.88-.3V24l4.4-.42-.26 3.27v10.72l.26 1.79 1.52.3v.73l-3.78.5.35-2.24c-1.08 1.46-2.18 2.24-3.74 2.24-2.37 0-4.07-2.05-4.07-5.25m12.73 4.02l1.64-.3.26-1.8v-10.7l-.26-1.81-1.88-.3V24l4.38-.42-.24 3.27v10.72l.26 1.79 1.62.3v.73h-5.78zm11.75-6.28l1.6-.23c0-1.86-.87-2.82-2.16-2.82-1.32 0-2.24.99-2.5 3.05h3.06zm-5.12 1.86c0-3.57 1.8-5.85 4.75-5.85 2.47 0 4.18 1.6 4.09 4.93h-6.8l-.02.52c0 2.66 1.3 4.54 3.78 4.54.76 0 1.6-.19 2.43-.8l.47.64c-1.34 1.22-2.36 1.66-4.05 1.66-2.8 0-4.65-2.02-4.65-5.64zm18.49-.19c0-2.42-1.04-4.06-2.61-4.06-.97 0-1.88.4-2.73 1.38v5.2l.23 2.05c.57.18.97.28 1.58.28 2.42 0 3.53-2.17 3.53-4.85m-7.36 5.34V26.85l-.24-1.81-1.88-.3V24l4.37-.42-.23 3.27v4.42a4.48 4.48 0 013.57-1.88c2.26 0 3.84 1.93 3.84 4.91 0 3.65-2.19 6.58-6.42 6.58-1 0-1.67 0-3.01-.49m12.15-3.17v-4.5l-.25-1.8-1.84-.31v-.73l4.35-.42-.23 3.27v3.95c0 1.62.75 2.6 2.23 2.6 1.01 0 1.93-.6 2.59-1.4v-5.15l-.24-1.81-1.83-.31v-.73l4.35-.42-.26 3.27v4.84l.26 1.79 1.69.3v.73l-3.97.42.26-2.11c-1.11 1.53-2.1 2.19-3.77 2.19-2.07 0-3.34-1.32-3.34-3.67M184 45.96v-.8l2.36-.37 1-1.65 1.02-2.37-3.3-8.04-.96-1.84-1.06-.28v-.73h5.15v.73l-1.5.28.56 1.84 2.12 5.43 1.97-5.43.52-1.84-1.48-.28v-.73h4.23v.73l-1.2.28-.89 1.84-5.13 13.54zm-3.13-16.26c-1.34 0-2.4.75-3.38 2.4v-.34l.03-.36.1-.79.12-1.14-4.13.42v.73l1.88.3.26 1.81v4.84l-.26 1.78-1.65.31v.73h6.04v-.73l-1.88-.3-.26-1.8v-4.53a2.99 2.99 0 012.3-1.14c.5 0 .99.16 1.39.35l.59-2.37c-.5-.14-.73-.17-1.15-.17" mask="url(#d)"/></g></g></svg>